<svg width="8012" height="2896" xmlns="http://www.w3.org/2000/svg" xmlns:xlink="http://www.w3.org/1999/xlink" xml:space="preserve" overflow="hidden"><defs><clipPath id="clip0"><rect x="293" y="-247" width="8012" height="2896"/></clipPath></defs><g clip-path="url(#clip0)" transform="translate(-293 247)"><path d="M1114.5 930.5 1114.5 1216.33" stroke="#000000" stroke-width="68.75" stroke-linecap="square" stroke-linejoin="miter" stroke-miterlimit="8" stroke-opacity="1" fill="none" fill-rule="evenodd"/><path d="M0 0 0.000360892 285.827" stroke="#000000" stroke-width="68.75" stroke-linecap="square" stroke-linejoin="miter" stroke-miterlimit="8" stroke-opacity="1" fill="none" fill-rule="evenodd" transform="matrix(-6.12323e-17 -1 -1 6.12323e-17 1112.33 1219.5)"/><path d="M1112.33 927.5 826.5 927.5" stroke="#000000" stroke-width="68.75" stroke-linecap="square" stroke-linejoin="miter" stroke-miterlimit="8" stroke-opacity="1" fill="none" fill-rule="evenodd"/><path d="M822.5 930.5 822.5 1216.33" stroke="#000000" stroke-width="68.75" stroke-linecap="square" stroke-linejoin="miter" stroke-miterlimit="8" stroke-opacity="1" fill="none" fill-rule="evenodd"/><path d="M345.5 436.5 345.5 1239.41" stroke="#000000" stroke-width="68.75" stroke-linecap="square" stroke-linejoin="miter" stroke-miterlimit="8" stroke-opacity="1" fill="none" fill-rule="evenodd"/><path d="M348.5 433.5 1151.41 433.5" stroke="#000000" stroke-width="68.75" stroke-linecap="square" stroke-linejoin="miter" stroke-miterlimit="8" stroke-opacity="1" fill="none" fill-rule="evenodd"/><path d="M858 1763 1660.91 1763" stroke="#000000" stroke-width="77.9167" stroke-linecap="square" stroke-linejoin="miter" stroke-miterlimit="8" stroke-opacity="1" fill="none" fill-rule="evenodd"/><path d="M0 0 0.000360892 802.913" stroke="#000000" stroke-width="77.9167" stroke-linecap="square" stroke-linejoin="miter" stroke-miterlimit="8" stroke-opacity="1" fill="none" fill-rule="evenodd" transform="matrix(-1 0 0 1 1666 952)"/><path d="M0 0 234.358 233.858" stroke="#000000" stroke-width="68.75" stroke-linecap="square" stroke-linejoin="miter" stroke-miterlimit="8" stroke-opacity="1" fill="none" fill-rule="evenodd" transform="matrix(-1 0 0 1 1508.86 591.5)"/><path d="M0 0 129.921 129.921" stroke="#000000" stroke-width="68.75" stroke-linecap="square" stroke-linejoin="miter" stroke-miterlimit="8" stroke-opacity="1" fill="none" fill-rule="evenodd" transform="matrix(-0.691139 -0.722722 -0.722722 0.691139 1443.09 844.571)"/><path d="M1256.87 841.637 1260.58 658.331" stroke="#000000" stroke-width="68.75" stroke-linecap="square" stroke-linejoin="miter" stroke-miterlimit="8" stroke-opacity="1" fill="none" fill-rule="evenodd"/><path d="M1141.33 956.5 855.5 956.501" stroke="#4372C4" stroke-width="68.75" stroke-linecap="square" stroke-linejoin="miter" stroke-miterlimit="8" stroke-opacity="1" fill="none" fill-rule="evenodd"/><path d="M1143.5 960.5 1143.5 1246.33" stroke="#4372C4" stroke-width="68.75" stroke-linecap="square" stroke-linejoin="miter" stroke-miterlimit="8" stroke-opacity="1" fill="none" fill-rule="evenodd"/><path d="M851.5 959.5 851.5 1245.33" stroke="#4372C4" stroke-width="68.75" stroke-linecap="square" stroke-linejoin="miter" stroke-miterlimit="8" stroke-opacity="1" fill="none" fill-rule="evenodd"/><path d="M0 0 0.000360892 285.827" stroke="#4372C4" stroke-width="68.75" stroke-linecap="square" stroke-linejoin="miter" stroke-miterlimit="8" stroke-opacity="1" fill="none" fill-rule="evenodd" transform="matrix(-6.12323e-17 -1 -1 6.12323e-17 1141.33 1249.5)"/><text fill="#C00000" fill-opacity="1" font-family="Arial,Arial_MSFontService,sans-serif" font-style="italic" font-variant="normal" font-weight="400" font-stretch="normal" font-size="1375" text-anchor="start" direction="ltr" writing-mode="lr-tb" unicode-bidi="normal" text-decoration="none" transform="matrix(1 0 0 1 1892.68 1506)">SEIS </text><text fill="#404040" fill-opacity="1" font-family="Arial,Arial_MSFontService,sans-serif" font-style="normal" font-variant="normal" font-weight="400" font-stretch="normal" font-size="1375" text-anchor="start" direction="ltr" writing-mode="lr-tb" unicode-bidi="normal" text-decoration="none" transform="matrix(1 0 0 1 5542.16 1506)">DB</text><path d="M1908.5 1779.15C1935.38 1763.09 2032.9 1807.53 2101.93 1777.66 2162.19 1758.57 2190.65 1785.62 2252.38 1776.5 2294.51 1780.38 2446.32 1802.27 2510.28 1774.52 2544.9 1760.44 2661.95 1782.06 2703.72 1773.04 2775.98 1770.53 2816.8 1780.94 2897.15 1771.55 2947.99 1743.45 3031.95 1790.3 3155.05 1769.57 3272.1 1740.49 3248.57 1794.9 3326.99 1768.25 3403.72 1756.82 3522.95 1791.26 3584.9 1766.27 3611.1 1736.33 3750.43 1803.48 3842.81 1764.29 3961.89 1753.5 3988.54 1802.47 4057.73 1762.63 4124.88 1771.63 4175.3 1779.53 4220.55 1761.11 4283.34 1755.26 4302.27 1760.31 4378.75 1759.63 4452 1753.59 4470.21 1758 4518.53 1758.33 4613.65 1752.78 4822.59 1704.18 4905.6 1758.33 4981.79 1741.86 4941.99 1967.2 5006.98 1891.91 5030.89 1841.51 5066.6 1343.17 5099.14 1383.44 5131.59 1463.81 5210.03 2021.18 5218.95 2111.67 5263.14 2175.35 5273.21 1763.64 5338.75 1702.31 5375.26 1653.95 5406.69 1768.47 5449.35 1766.94 5482.89 1754.69 5510.14 1699.83 5541.51 1698 5583.74 1706.32 5595.52 1744.52 5633.66 1745.4 5667.52 1752.16 5724.47 1752.11 5762.69 1766.94 5812.93 1788.15 5844.1 1776.27 5891.71 1792.8 5964.5 1810.01 5986.79 1795.92 6066.82 1775.56 6127.93 1776.55 6151.23 1746.44 6232.7 1749.71 6332.25 1736.8 6503.66 1741.08 6546.05 1766.94 6619.78 1769.82 6675.07 1766.94 6675.07 1766.94 6727.08 1766.58 6802.87 1800.06 6857 1764.92 6934.54 1739.34 6971.53 1798.43 7062.14 1762.63 7168.52 1758.39 7173.92 1774.85 7260.71 1759.17 7365.86 1739.3 7421.27 1779.42 7468.73 1755.53 7534.42 1750.1 7589.25 1777.76 7638.93 1752.56 7710.72 1761.7 7755.99 1761.88 7837.5 1749.1" stroke="#C00000" stroke-width="22.9167" stroke-linecap="round" stroke-linejoin="miter" stroke-miterlimit="8" stroke-opacity="1" fill="none" fill-rule="evenodd"/><path d="M1578.04 471.504 1623.97 517.438 1578.04 563.372 1532.1 517.438Z" fill="#000000" fill-rule="nonzero" fill-opacity="1"/><path d="M1637.84 409.664 1683.77 455.599 1637.84 501.533 1591.9 455.599Z" fill="#000000" fill-rule="nonzero" fill-opacity="1"/><path d="M0 0 234.358 233.858" stroke="#000000" stroke-width="68.75" stroke-linecap="square" stroke-linejoin="miter" stroke-miterlimit="8" stroke-opacity="1" fill="none" fill-rule="evenodd" transform="matrix(1 -1.22465e-16 -1.22465e-16 -1 498.5 1614.36)"/><path d="M0 0 129.921 129.921" stroke="#000000" stroke-width="68.75" stroke-linecap="square" stroke-linejoin="miter" stroke-miterlimit="8" stroke-opacity="1" fill="none" fill-rule="evenodd" transform="matrix(0.691139 0.722722 0.722722 -0.691139 556.398 1357.29)"/><path d="M742.615 1366.12 738.914 1549.43" stroke="#000000" stroke-width="68.75" stroke-linecap="square" stroke-linejoin="miter" stroke-miterlimit="8" stroke-opacity="1" fill="none" fill-rule="evenodd"/><path d="M427.343 1733.31 381.409 1687.37 427.343 1641.44 473.277 1687.37Z" fill="#000000" fill-rule="nonzero" fill-opacity="1"/><path d="M367.546 1795.15 321.612 1749.21 367.546 1703.28 413.48 1749.21Z" fill="#000000" fill-rule="nonzero" fill-opacity="1"/><path d="M377.5 460.5 377.5 1263.41" stroke="#4372C4" stroke-width="68.75" stroke-linecap="square" stroke-linejoin="miter" stroke-miterlimit="8" stroke-opacity="1" fill="none" fill-rule="evenodd"/><path d="M380.5 457.5 1183.41 457.5" stroke="#4372C4" stroke-width="68.75" stroke-linecap="square" stroke-linejoin="miter" stroke-miterlimit="8" stroke-opacity="1" fill="none" fill-rule="evenodd"/><path d="M882.5 1779.5 1685.41 1779.5" stroke="#4372C4" stroke-width="68.75" stroke-linecap="square" stroke-linejoin="miter" stroke-miterlimit="8" stroke-opacity="1" fill="none" fill-rule="evenodd"/><path d="M0 0 0.000360892 802.913" stroke="#4372C4" stroke-width="68.75" stroke-linecap="square" stroke-linejoin="miter" stroke-miterlimit="8" stroke-opacity="1" fill="none" fill-rule="evenodd" transform="matrix(-1 0 0 1 1690.5 969.5)"/><path d="M0 0 234.358 233.858" stroke="#C00000" stroke-width="68.75" stroke-linecap="square" stroke-linejoin="miter" stroke-miterlimit="8" stroke-opacity="1" fill="none" fill-rule="evenodd" transform="matrix(1 -1.22465e-16 -1.22465e-16 -1 505.5 1638.36)"/><path d="M0 0 129.921 129.921" stroke="#C00000" stroke-width="68.75" stroke-linecap="square" stroke-linejoin="miter" stroke-miterlimit="8" stroke-opacity="1" fill="none" fill-rule="evenodd" transform="matrix(0.691139 0.722722 0.722722 -0.691139 564.093 1380.9)"/><path d="M750.311 1389.72 746.609 1573.03" stroke="#C00000" stroke-width="68.75" stroke-linecap="square" stroke-linejoin="miter" stroke-miterlimit="8" stroke-opacity="1" fill="none" fill-rule="evenodd"/><path d="M427.364 1756.91 381.43 1710.98 427.364 1665.04 473.298 1710.98Z" fill="#C00000" fill-rule="nonzero" fill-opacity="1"/><path d="M367.567 1818.75 321.633 1772.82 367.567 1726.88 413.501 1772.82Z" fill="#C00000" fill-rule="nonzero" fill-opacity="1"/><path d="M1581.1 492.86 1627.03 538.794 1581.1 584.728 1535.17 538.794Z" fill="#C00000" fill-rule="nonzero" fill-opacity="1"/><path d="M1640.9 431.021 1686.83 476.955 1640.9 522.889 1594.96 476.955Z" fill="#C00000" fill-rule="nonzero" fill-opacity="1"/><path d="M0 0 234.358 233.858" stroke="#C00000" stroke-width="68.75" stroke-linecap="square" stroke-linejoin="miter" stroke-miterlimit="8" stroke-opacity="1" fill="none" fill-rule="evenodd" transform="matrix(-1 0 0 1 1519.86 607.5)"/><path d="M0 0 129.921 129.921" stroke="#C00000" stroke-width="68.75" stroke-linecap="square" stroke-linejoin="miter" stroke-miterlimit="8" stroke-opacity="1" fill="none" fill-rule="evenodd" transform="matrix(-0.691139 -0.722722 -0.722722 0.691139 1454.11 861.111)"/><path d="M1267.89 858.177 1271.59 674.871" stroke="#C00000" stroke-width="68.75" stroke-linecap="square" stroke-linejoin="miter" stroke-miterlimit="8" stroke-opacity="1" fill="none" fill-rule="evenodd"/></g></svg>