<svg width="8626" height="2896" xmlns="http://www.w3.org/2000/svg" xmlns:xlink="http://www.w3.org/1999/xlink" xml:space="preserve" overflow="hidden"><defs><clipPath id="clip0"><rect x="302" y="-247" width="8626" height="2896"/></clipPath></defs><g clip-path="url(#clip0)" transform="translate(-302 247)"><text fill="#C00000" fill-opacity="1" font-family="Arial,Arial_MSFontService,sans-serif" font-style="italic" font-variant="normal" font-weight="400" font-stretch="normal" font-size="1375" text-anchor="start" direction="ltr" writing-mode="lr-tb" unicode-bidi="normal" text-decoration="none" transform="matrix(1 0 0 1 1892.68 1506)">SEIS</text><text fill="#404040" fill-opacity="1" font-family="Arial,Arial_MSFontService,sans-serif" font-style="normal" font-variant="normal" font-weight="400" font-stretch="normal" font-size="1375" text-anchor="start" direction="ltr" writing-mode="lr-tb" unicode-bidi="normal" text-decoration="none" transform="matrix(1 0 0 1 5081.53 1506)">GEN</text><path d="M1908.5 1779.19C1948.28 1771.1 2054.43 1799.48 2101.92 1777.7 2149.41 1755.92 2197.15 1785.45 2252.37 1776.54 2307.58 1767.63 2451.19 1775.26 2510.26 1774.56 2569.34 1773.87 2653.89 1778.25 2703.69 1773.08 2753.49 1767.9 2810.36 1794.19 2897.11 1771.59 2983.87 1748.99 3036.63 1785.89 3155.01 1769.61 3273.4 1753.33 3256.82 1783.41 3326.95 1768.29 3397.07 1753.17 3512.15 1788.72 3584.84 1766.31 3657.54 1743.9 3733.44 1789.66 3842.74 1764.33 3952.05 1738.99 3986.37 1780.73 4057.66 1762.67 4110.02 1748.88 4161.93 1763.28 4220.47 1761.15 4279.01 1759.03 4300.89 1766.46 4378.67 1759.67 4456.46 1752.89 4473.28 1760.22 4518.44 1758.37 4651.37 1755.5 4832.82 1725.27 4905.5 1758.37 4979.06 1777.59 4972.57 1949.31 5006.88 1891.95 5038.09 1828.49 5056.11 1335.49 5099.03 1383.48 5133.12 1424.76 5173.65 2042.75 5218.84 2111.71 5271.25 2162.31 5311.49 1761.63 5338.64 1702.35 5370.69 1645.16 5418.47 1762.22 5449.23 1766.98 5480.54 1767.54 5517.08 1700.27 5541.39 1698.04 5572.34 1696.64 5599.19 1733.1 5633.54 1745.44 5670.03 1746.9 5731.43 1761.56 5762.56 1766.98 5798.5 1783.7 5844.21 1781.21 5891.58 1792.84 5946.34 1798.68 6012.24 1790.34 6066.68 1775.6 6129.71 1770.59 6154.32 1756.67 6232.56 1749.75 6319.69 1746.18 6492.89 1759.56 6545.9 1766.98 6619.62 1769.86 6674.92 1766.98 6674.92 1766.98 6741.58 1758.4 6797.82 1786.86 6856.83 1764.96 6915.84 1743.06 6976.11 1780.67 7061.97 1762.67 7152.62 1753.92 7175.23 1779.71 7260.54 1759.21 7345.84 1738.71 7408.55 1766.46 7468.55 1755.58 7528.55 1744.69 7580.51 1756.87 7638.75 1752.6 7696.98 1748.33 7762.01 1770.23 7837.31 1749.14 7912.61 1728.05 7945.98 1749.21 8007.5 1746.16" stroke="#C00000" stroke-width="22.9167" stroke-linecap="round" stroke-linejoin="miter" stroke-miterlimit="8" stroke-opacity="1" fill="none" fill-rule="evenodd"/><path d="M341.5 771.5 1035.12 1061.58" stroke="#000000" stroke-width="68.75" stroke-linecap="round" stroke-linejoin="miter" stroke-miterlimit="8" stroke-opacity="1" fill="none" fill-rule="evenodd"/><path d="M0 0 682.004 290.076" stroke="#000000" stroke-width="68.75" stroke-linecap="round" stroke-linejoin="miter" stroke-miterlimit="8" stroke-opacity="1" fill="none" fill-rule="evenodd" transform="matrix(1 0 0 -1 1035.5 1061.58)"/><path d="M0 0 693.616 285.827" stroke="#000000" stroke-width="68.75" stroke-linecap="round" stroke-linejoin="miter" stroke-miterlimit="8" stroke-opacity="1" fill="none" fill-rule="evenodd" transform="matrix(1 0 0 -1 341.5 759.327)"/><path d="M1035.5 473.5 1717.5 772.073" stroke="#000000" stroke-width="68.75" stroke-linecap="round" stroke-linejoin="miter" stroke-miterlimit="8" stroke-opacity="1" fill="none" fill-rule="evenodd"/><path d="M341.5 1005.5 1035.12 1295.58" stroke="#000000" stroke-width="68.75" stroke-linecap="round" stroke-linejoin="miter" stroke-miterlimit="8" stroke-opacity="1" fill="none" fill-rule="evenodd"/><path d="M0 0 682.004 290.076" stroke="#000000" stroke-width="68.75" stroke-linecap="round" stroke-linejoin="miter" stroke-miterlimit="8" stroke-opacity="1" fill="none" fill-rule="evenodd" transform="matrix(1 0 0 -1 1035.5 1295.58)"/><path d="M341.5 1239.5 1035.12 1529.58" stroke="#000000" stroke-width="68.75" stroke-linecap="round" stroke-linejoin="miter" stroke-miterlimit="8" stroke-opacity="1" fill="none" fill-rule="evenodd"/><path d="M0 0 682.004 290.076" stroke="#000000" stroke-width="68.75" stroke-linecap="round" stroke-linejoin="miter" stroke-miterlimit="8" stroke-opacity="1" fill="none" fill-rule="evenodd" transform="matrix(1 0 0 -1 1035.5 1529.58)"/><path d="M341.5 1488.5 1035.12 1778.58" stroke="#000000" stroke-width="68.75" stroke-linecap="round" stroke-linejoin="miter" stroke-miterlimit="8" stroke-opacity="1" fill="none" fill-rule="evenodd"/><path d="M0 0 682.004 290.076" stroke="#000000" stroke-width="68.75" stroke-linecap="round" stroke-linejoin="miter" stroke-miterlimit="8" stroke-opacity="1" fill="none" fill-rule="evenodd" transform="matrix(1 0 0 -1 1035.5 1778.58)"/><path d="M338.5 1506.5 1032.12 1796.58" stroke="#C00000" stroke-width="68.75" stroke-linecap="round" stroke-linejoin="miter" stroke-miterlimit="8" stroke-opacity="1" fill="none" fill-rule="evenodd"/><path d="M0 0 682.004 290.076" stroke="#C00000" stroke-width="68.75" stroke-linecap="round" stroke-linejoin="miter" stroke-miterlimit="8" stroke-opacity="1" fill="none" fill-rule="evenodd" transform="matrix(1 0 0 -1 1035.5 1799.58)"/><path d="M341.5 1260.5 1035.12 1550.58" stroke="#4372C4" stroke-width="68.75" stroke-linecap="round" stroke-linejoin="miter" stroke-miterlimit="8" stroke-opacity="1" fill="none" fill-rule="evenodd"/><path d="M0 0 682.004 290.076" stroke="#4372C4" stroke-width="68.75" stroke-linecap="round" stroke-linejoin="miter" stroke-miterlimit="8" stroke-opacity="1" fill="none" fill-rule="evenodd" transform="matrix(1 0 0 -1 1035.5 1550.58)"/><path d="M341.5 1025.5 1035.12 1315.58" stroke="#BC0001" stroke-width="68.75" stroke-linecap="round" stroke-linejoin="miter" stroke-miterlimit="8" stroke-opacity="1" fill="none" fill-rule="evenodd"/><path d="M0 0 682.004 290.076" stroke="#BC0001" stroke-width="68.75" stroke-linecap="round" stroke-linejoin="miter" stroke-miterlimit="8" stroke-opacity="1" fill="none" fill-rule="evenodd" transform="matrix(1 0 0 -1 1035.5 1315.58)"/><path d="M341.5 790.5 1035.12 1080.58" stroke="#4372C4" stroke-width="68.75" stroke-linecap="round" stroke-linejoin="miter" stroke-miterlimit="8" stroke-opacity="1" fill="none" fill-rule="evenodd"/><path d="M0 0 682.004 290.076" stroke="#4372C4" stroke-width="68.75" stroke-linecap="round" stroke-linejoin="miter" stroke-miterlimit="8" stroke-opacity="1" fill="none" fill-rule="evenodd" transform="matrix(1 0 0 -1 1035.5 1080.58)"/><path d="M0 0 693.616 285.827" stroke="#4372C4" stroke-width="68.75" stroke-linecap="round" stroke-linejoin="miter" stroke-miterlimit="8" stroke-opacity="1" fill="none" fill-rule="evenodd" transform="matrix(1 0 0 -1 341.5 777.327)"/><path d="M1035.5 491.5 1717.5 790.073" stroke="#4372C4" stroke-width="68.75" stroke-linecap="round" stroke-linejoin="miter" stroke-miterlimit="8" stroke-opacity="1" fill="none" fill-rule="evenodd"/></g></svg>